<svg width="60" height="71" viewBox="0 0 60 71" fill="none" xmlns="http://www.w3.org/2000/svg">
<path d="M37.67 53.3L37.77 53.13C35.7589 55.1252 33.3823 56.7141 30.77 57.81C28.0927 58.9635 25.2052 59.5492 22.29 59.53L11.41 70.46H0.47998V15.84L16.08 0.240005L27.01 11.24V33H37.94C39.3947 33.0217 40.8382 32.7425 42.18 32.18C43.4352 31.6394 44.5808 30.8734 45.56 29.92L53.28 37.7L37.67 53.3Z" fill="#FF68C3"/>
<path d="M27.0101 54.86H16.0801V0.240002H37.9401C39.8972 0.236081 41.8455 0.501912 43.7301 1.03C45.5521 1.53298 47.3003 2.27261 48.9301 3.23C52.1718 5.14519 54.8731 7.85342 56.7801 11.1C57.7388 12.7374 58.4816 14.492 58.9901 16.32C59.5148 18.205 59.7773 20.1533 59.7701 22.11C59.7885 25.0219 59.2028 27.9059 58.0501 30.58C55.8343 35.8222 51.6623 39.9943 46.4201 42.21C43.7425 43.3627 40.8552 43.9483 37.9401 43.93H27.0101V54.86ZM27.0101 11.18V33H37.9401C39.3948 33.0217 40.8383 32.7425 42.1801 32.18C43.4751 31.628 44.6529 30.8337 45.6501 29.84C46.6487 28.8391 47.4434 27.6538 47.9901 26.35C48.5575 25.0067 48.8498 23.5632 48.8498 22.105C48.8498 20.6468 48.5575 19.2033 47.9901 17.86C46.8953 15.2213 44.8093 13.1173 42.1801 12C40.8437 11.4283 39.4036 11.1389 37.9501 11.15L27.0101 11.18Z" fill="#9D3461"/>
</svg>
