<svg width="730" height="567" viewBox="0 0 730 567" fill="none" xmlns="http://www.w3.org/2000/svg">
<path d="M338.289 567C525.121 567 676.578 561.994 676.578 555.819C676.578 549.644 525.121 544.638 338.289 544.638C151.457 544.638 0 549.644 0 555.819C0 561.994 151.457 567 338.289 567Z" fill="#E6E6E6"/>
<path d="M333.21 181.761C356.213 181.761 374.861 163.102 374.861 140.086C374.861 117.069 356.213 98.4109 333.21 98.4109C310.206 98.4109 291.559 117.069 291.559 140.086C291.559 163.102 310.206 181.761 333.21 181.761Z" fill="#FFAFBD"/>
<path d="M322.193 236.446L303.345 222.014L235.871 344.296C233.752 344.681 231.793 345.682 230.238 347.173C228.684 348.665 227.602 350.581 227.129 352.683C226.655 354.786 226.811 356.981 227.575 358.996C228.34 361.01 229.681 362.755 231.43 364.013C233.179 365.27 235.259 365.985 237.411 366.068C239.564 366.151 241.693 365.598 243.533 364.478C245.373 363.359 246.844 361.722 247.761 359.772C248.678 357.822 249.001 355.645 248.69 353.513L322.193 236.446Z" fill="#FFB8B8"/>
<path d="M494.227 305.85C493.456 303.619 491.988 301.696 490.04 300.365C488.091 299.034 485.766 298.367 483.409 298.461L374.693 213.134L358.387 230.387L472.914 310.259C473.03 311.816 473.477 313.33 474.225 314.7C474.973 316.07 476.004 317.265 477.25 318.205C478.496 319.145 479.927 319.808 481.45 320.15C482.972 320.493 484.55 320.506 486.078 320.19C487.606 319.874 489.049 319.236 490.311 318.317C491.572 317.399 492.624 316.222 493.395 314.865C494.166 313.508 494.639 312.002 494.783 310.447C494.926 308.893 494.737 307.326 494.227 305.85V305.85Z" fill="#FFB8B8"/>
<path d="M368.054 543.841H380.863L386.958 494.411H368.054V543.841Z" fill="#FFB8B8"/>
<path d="M405.563 555.74H365.31V540.179H390.011C394.135 540.179 398.091 541.818 401.008 544.737C403.924 547.655 405.563 551.613 405.563 555.74V555.74Z" fill="#2F2E41"/>
<path d="M266.569 532.399L278.336 537.459L303.442 494.454L286.075 486.986L266.569 532.399Z" fill="#FFB8B8"/>
<path d="M296.334 558.151L259.351 542.248L265.492 527.951L288.186 537.709C291.975 539.339 294.963 542.408 296.491 546.242C298.019 550.075 297.962 554.359 296.334 558.151Z" fill="#2F2E41"/>
<path d="M306.49 306.836L245.563 498.881L325.53 507.453L333.21 395.218L343.618 507.453L408.353 499.833C408.353 499.833 396.659 322.076 375.374 310.646C354.089 299.215 306.49 306.836 306.49 306.836Z" fill="#2F2E41"/>
<path d="M339.525 191.807C354.247 191.807 366.181 179.866 366.181 165.136C366.181 150.406 354.247 138.465 339.525 138.465C324.804 138.465 312.87 150.406 312.87 165.136C312.87 179.866 324.804 191.807 339.525 191.807Z" fill="#FFB8B8"/>
<path d="M338.672 315.444C320.163 315.444 302.351 314.624 301.433 313.031C301.355 312.898 301.325 312.741 301.349 312.588C301.373 312.435 301.448 312.295 301.563 312.192C302.836 310.316 299.847 279.821 293.552 230.634C292.838 224.874 294.112 219.043 297.161 214.106C300.211 209.169 304.854 205.421 310.322 203.484L310.44 203.457L366.226 197.945L366.851 198.121C372.369 199.656 377.201 203.024 380.554 207.671C383.906 212.317 385.578 217.967 385.297 223.691C383.859 255.067 381.445 308.21 381.445 311.598C381.445 312.52 380.163 312.982 379.045 313.281C373.614 314.738 355.843 315.444 338.672 315.444Z" fill="#2F2E41"/>
<path d="M113.425 93.7359L51.2217 171.513L128.954 233.751L191.157 155.974L113.425 93.7359Z" fill="#F2F2F2"/>
<path d="M128.414 251.214C124.044 250.547 119.97 248.599 116.707 245.616C113.444 242.632 111.138 238.748 110.081 234.453C109.024 230.159 109.264 225.647 110.77 221.489C112.276 217.331 114.98 213.712 118.541 211.092C122.102 208.472 126.359 206.967 130.775 206.767C135.191 206.568 139.567 207.683 143.349 209.972C147.131 212.261 150.15 215.621 152.024 219.627C153.898 223.633 154.543 228.104 153.876 232.477C153.434 235.38 152.425 238.167 150.906 240.68C149.387 243.193 147.388 245.382 145.024 247.122C142.659 248.861 139.976 250.118 137.126 250.82C134.276 251.523 131.316 251.656 128.414 251.214ZM134.844 209.01C130.872 208.404 126.809 208.99 123.169 210.695C119.53 212.399 116.477 215.145 114.397 218.586C112.318 222.026 111.304 226.006 111.485 230.023C111.666 234.04 113.034 237.912 115.415 241.151C117.795 244.39 121.083 246.85 124.861 248.22C128.639 249.59 132.738 249.808 136.64 248.846C140.542 247.885 144.071 245.788 146.782 242.819C149.492 239.851 151.262 236.145 151.868 232.17C152.674 226.841 151.334 221.41 148.142 217.068C144.951 212.726 140.168 209.828 134.844 209.01Z" fill="#3F3D56"/>
<path d="M80.8418 503.355C73.2126 528.855 85.053 554.925 85.053 554.925C85.053 554.925 109.263 539.653 116.892 514.154C124.521 488.654 112.681 462.584 112.681 462.584C112.681 462.584 88.471 477.856 80.8418 503.355Z" fill="#E6E6E6"/>
<path d="M92.4253 504.045C98.8463 529.875 85.7924 555.359 85.7924 555.359C85.7924 555.359 62.328 538.964 55.907 513.133C49.486 487.303 62.5398 461.819 62.5398 461.819C62.5398 461.819 86.0043 478.214 92.4253 504.045Z" fill="#E6E6E6"/>
<path d="M302.04 147.471C316.215 155.193 332.17 159.051 348.306 158.656C354.486 158.496 361.295 157.371 365.209 152.583C369.625 147.18 368.52 138.738 364.26 133.211C360 127.685 353.335 124.569 346.687 122.456C340.397 120.457 333.656 119.169 327.206 120.567C323.802 121.304 320.596 122.767 317.807 124.854C315.018 126.942 312.711 129.606 311.043 132.666C309.376 135.726 308.386 139.109 308.141 142.585C307.897 146.062 308.403 149.55 309.627 152.813" fill="#FFAFBD"/>
<path d="M303.749 133.987C316.653 133.987 327.114 123.52 327.114 110.608C327.114 97.6968 316.653 87.2299 303.749 87.2299C290.845 87.2299 280.384 97.6968 280.384 110.608C280.384 123.52 290.845 133.987 303.749 133.987Z" fill="#FFAFBD"/>
<path d="M725.964 113.201L634.245 59.7134L646.011 39.5152C646.347 38.9386 646.566 38.3014 646.656 37.64C646.746 36.9787 646.704 36.3061 646.534 35.6607C646.364 35.0153 646.069 34.4098 645.665 33.8786C645.261 33.3474 644.757 32.9011 644.18 32.565C643.604 32.2289 642.967 32.0097 642.306 31.9198C641.645 31.83 640.973 31.8713 640.328 32.0414C639.683 32.2115 639.078 32.507 638.547 32.9111C638.016 33.3152 637.57 33.82 637.234 34.3966L625.469 54.5948L533.75 1.10749C531.888 0.0215025 529.671 -0.279815 527.587 0.26981C525.502 0.819435 523.722 2.17498 522.636 4.03825L451.019 126.985C449.934 128.848 449.633 131.066 450.182 133.152C450.732 135.237 452.086 137.019 453.948 138.105L545.667 191.592L465.354 329.468C465.018 330.045 464.798 330.682 464.709 331.343C464.619 332.005 464.66 332.677 464.83 333.323C465 333.969 465.295 334.574 465.699 335.106C466.103 335.637 466.607 336.083 467.184 336.419C467.76 336.756 468.397 336.975 469.058 337.065C469.719 337.154 470.392 337.113 471.037 336.943C471.682 336.772 472.287 336.477 472.818 336.072C473.349 335.668 473.795 335.163 474.131 334.586L554.444 196.71L646.162 250.198C647.084 250.736 648.103 251.086 649.161 251.23C650.219 251.374 651.294 251.308 652.326 251.036C653.358 250.764 654.326 250.291 655.176 249.644C656.025 248.997 656.739 248.19 657.276 247.267L728.893 124.321C729.431 123.398 729.781 122.379 729.925 121.321C730.068 120.262 730.002 119.186 729.73 118.154C729.458 117.121 728.986 116.152 728.339 115.302C727.693 114.453 726.886 113.738 725.964 113.201Z" fill="#3F3D56"/>
<path opacity="0.1" d="M598.754 187.256C601.579 182.406 588.937 169.766 570.517 159.024C552.098 148.282 534.875 143.506 532.05 148.356C529.225 153.206 541.867 165.846 560.286 176.588C578.706 187.33 595.929 192.106 598.754 187.256Z" fill="black"/>
<path d="M589.956 174.443C616.887 174.443 638.719 152.599 638.719 125.653C638.719 98.7067 616.887 76.8625 589.956 76.8625C563.026 76.8625 541.194 98.7067 541.194 125.653C541.194 152.599 563.026 174.443 589.956 174.443Z" fill="#FFAFBD"/>
<path d="M611.171 149.79C608.346 154.64 588.42 157.699 573.878 149.218C559.336 140.738 555.685 123.93 558.51 119.079C561.335 114.229 569.567 123.174 584.109 131.655C598.651 140.135 613.997 144.94 611.171 149.79Z" fill="#F2F2F2"/>
<path d="M579.343 109.628C584.954 109.628 589.502 105.077 589.502 99.4631C589.502 93.8493 584.954 89.2985 579.343 89.2985C573.733 89.2985 569.185 93.8493 569.185 99.4631C569.185 105.077 573.733 109.628 579.343 109.628Z" fill="#F2F2F2"/>
<path d="M616.206 131.125C621.817 131.125 626.365 126.574 626.365 120.96C626.365 115.347 621.817 110.796 616.206 110.796C610.596 110.796 606.048 115.347 606.048 120.96C606.048 126.574 610.596 131.125 616.206 131.125Z" fill="#F2F2F2"/>
</svg>
