<svg width="975" height="564" viewBox="0 0 975 564" fill="none" xmlns="http://www.w3.org/2000/svg">
<g clip-path="url(#clip0)">
<path d="M501.706 561.113C486.292 563.488 470.692 564.276 455.131 563.468C417.61 561.486 380.708 550.072 349.173 528.615C335.191 519.1 321.853 507.41 314.615 491.707C304.792 470.382 308.228 443.386 322.255 424.812C327.372 418.112 333.665 412.497 340.798 408.268C341.854 407.643 342.934 407.043 344.026 406.466C355.91 400.216 369.259 397.66 382.489 399.101C404.983 401.672 425.743 416.041 437.737 436.117C448.422 454.018 452.144 475.139 454.339 496.308C454.752 500.297 455.108 504.298 455.453 508.275C453.541 519.796 450.535 531.089 446.48 541.987C446.274 542.518 446.105 543.064 445.975 543.621C448.272 548.835 450.459 554.097 452.535 559.407C454.485 560.514 456.669 561.093 458.888 561.089H501.614L501.706 561.113Z" fill="#F2F2F2"/>
<path d="M451.651 562.135C451.368 562.267 451.062 562.339 450.752 562.346C450.442 562.354 450.133 562.296 449.845 562.178C449.556 562.059 449.293 561.882 449.07 561.656C448.848 561.43 448.671 561.16 448.549 560.861C448.365 560.405 448.193 559.948 448.009 559.492C446.355 555.287 444.62 551.122 442.805 546.997C419.566 493.767 384.903 446.857 341.51 409.914C341.262 409.731 341.065 409.482 340.939 409.193C340.814 408.903 340.766 408.584 340.799 408.268C340.862 407.906 341.002 407.564 341.21 407.266C341.417 406.969 341.686 406.724 341.996 406.551C342.307 406.378 342.651 406.28 343.002 406.265C343.354 406.251 343.704 406.319 344.027 406.466C344.2 406.548 344.362 406.653 344.509 406.778C363.075 422.591 380.106 440.278 395.357 459.581C410.611 478.866 424.043 499.652 435.464 521.647C438.577 527.654 441.533 533.745 444.333 539.92C444.885 541.146 445.436 542.383 445.976 543.621C448.273 548.835 450.46 554.097 452.536 559.407C452.57 559.491 452.605 559.588 452.639 559.672C452.745 559.899 452.803 560.147 452.81 560.4C452.817 560.653 452.772 560.904 452.678 561.137C452.584 561.37 452.444 561.58 452.267 561.752C452.09 561.924 451.88 562.054 451.651 562.135Z" fill="white"/>
<path d="M299.279 403.679C324.024 403.679 344.084 382.701 344.084 356.823C344.084 330.945 324.024 309.967 299.279 309.967C274.534 309.967 254.474 330.945 254.474 356.823C254.474 382.701 274.534 403.679 299.279 403.679Z" fill="#43C6AC"/>
<path d="M294.837 374.697C293.829 374.699 292.848 374.358 292.041 373.726L291.991 373.687L281.462 365.256C280.974 364.866 280.564 364.378 280.256 363.822C279.949 363.266 279.749 362.652 279.668 362.015C279.587 361.378 279.627 360.73 279.786 360.109C279.944 359.488 280.218 358.906 280.592 358.396C280.966 357.886 281.432 357.458 281.964 357.136C282.496 356.815 283.083 356.606 283.692 356.522C284.302 356.437 284.921 356.479 285.514 356.646C286.108 356.812 286.665 357.099 287.152 357.49L293.972 362.959L310.09 340.977C310.463 340.468 310.93 340.04 311.461 339.718C311.993 339.397 312.581 339.188 313.19 339.104C313.799 339.02 314.418 339.062 315.011 339.228C315.604 339.394 316.161 339.681 316.648 340.072L316.548 340.214L316.651 340.074C317.634 340.864 318.278 342.03 318.44 343.316C318.602 344.602 318.27 345.903 317.517 346.933L298.559 372.788C298.121 373.384 297.557 373.866 296.911 374.197C296.266 374.528 295.556 374.699 294.837 374.697Z" fill="white"/>
<path d="M973.633 564H1.36836C1.00625 563.999 0.659337 563.848 0.403659 563.58C0.14798 563.311 0.00439453 562.948 0.00439453 562.569C0.00439453 562.191 0.14798 561.828 0.403659 561.559C0.659337 561.291 1.00625 561.14 1.36836 561.139H973.633C973.995 561.14 974.342 561.291 974.597 561.559C974.853 561.828 974.997 562.191 974.997 562.569C974.997 562.948 974.853 563.311 974.597 563.58C974.342 563.848 973.995 563.999 973.633 564Z" fill="#3F3D56"/>
<path d="M190.187 163.328C208.549 163.328 223.434 147.761 223.434 128.558C223.434 109.356 208.549 93.7892 190.187 93.7892C171.825 93.7892 156.939 109.356 156.939 128.558C156.939 147.761 171.825 163.328 190.187 163.328Z" fill="#2F2E41"/>
<path d="M164.236 109.811C169.608 104.193 170.697 96.2219 166.668 92.008C162.638 87.7941 155.016 88.9328 149.643 94.5513C144.271 100.17 143.182 108.141 147.211 112.355C151.241 116.569 158.863 115.43 164.236 109.811Z" fill="#2F2E41"/>
<path d="M224.841 98.7702C227.079 93.2899 223.229 86.3169 216.242 83.1955C209.255 80.0742 201.776 81.9866 199.537 87.4669C197.299 92.9472 201.148 99.9202 208.136 103.042C215.123 106.163 222.602 104.251 224.841 98.7702Z" fill="#2F2E41"/>
<path d="M282.768 329.295C283.608 327.625 284.088 325.783 284.174 323.898C284.259 322.013 283.949 320.132 283.264 318.386C282.579 316.641 281.536 315.073 280.209 313.795C278.883 312.516 277.304 311.557 275.584 310.986L227.544 204.709L205.569 220.823L259.701 320.223C258.974 323.307 259.355 326.564 260.77 329.374C262.186 332.185 264.538 334.355 267.381 335.473C270.225 336.592 273.361 336.58 276.197 335.442C279.033 334.303 281.371 332.116 282.768 329.295V329.295Z" fill="#FFB8B8"/>
<path d="M238.562 222.439L213.047 234.37C212.321 234.71 211.534 234.882 210.739 234.874C209.944 234.867 209.159 234.68 208.439 234.327C207.719 233.974 207.081 233.463 206.566 232.829C206.052 232.194 205.675 231.451 205.46 230.65L197.936 202.593C196.297 198.699 196.2 194.284 197.669 190.316C199.137 186.348 202.05 183.151 205.769 181.425C209.488 179.7 213.71 179.587 217.508 181.112C221.307 182.636 224.372 185.674 226.032 189.558L240.969 214.046C241.397 214.747 241.674 215.536 241.784 216.36C241.893 217.184 241.832 218.022 241.603 218.819C241.375 219.615 240.985 220.351 240.46 220.976C239.935 221.601 239.288 222.1 238.562 222.439Z" fill="#CCCCCC"/>
<path d="M120.726 339.831C122.483 339.405 124.13 338.58 125.55 337.416C126.969 336.251 128.128 334.776 128.943 333.092C129.759 331.409 130.211 329.56 130.269 327.674C130.327 325.788 129.989 323.912 129.278 322.177L174.775 214.683L148.749 207.828L112.211 315.647C109.504 317.088 107.396 319.518 106.288 322.475C105.179 325.433 105.147 328.713 106.196 331.694C107.246 334.675 109.304 337.15 111.982 338.65C114.66 340.15 117.771 340.57 120.726 339.831H120.726Z" fill="#FFB8B8"/>
<path d="M108.324 534.674L121.559 539.712L146.444 488.726L126.91 481.289L108.324 534.674Z" fill="#FFB8B8"/>
<path d="M142.608 562.283L101.013 546.445L106.865 529.639L132.389 539.358C136.651 540.981 140.122 544.308 142.038 548.607C143.955 552.907 144.16 557.826 142.608 562.283Z" fill="#2F2E41"/>
<path d="M139.628 505.333C138.816 505.333 138.014 505.145 137.28 504.781L122.07 497.247C120.823 496.635 119.84 495.557 119.316 494.225C118.791 492.893 118.762 491.404 119.234 490.051L162.159 365.742C162.515 364.712 163.142 363.809 163.969 363.138C164.795 362.466 165.787 362.054 166.829 361.948C167.871 361.842 168.92 362.047 169.854 362.54C170.789 363.032 171.571 363.792 172.109 364.731L194.813 404.302C195.318 405.184 195.59 406.19 195.601 407.218C195.611 408.246 195.36 409.258 194.873 410.151L144.453 502.423C143.965 503.309 143.261 504.044 142.414 504.555C141.567 505.066 140.606 505.334 139.628 505.333Z" fill="#2F2E41"/>
<path d="M191.242 166.367C206.826 166.367 219.459 153.156 219.459 136.859C219.459 120.562 206.826 107.35 191.242 107.35C175.658 107.35 163.025 120.562 163.025 136.859C163.025 153.156 175.658 166.367 191.242 166.367Z" fill="#FFB8B8"/>
<path d="M231.161 271.021L181.2 256.652L154.628 201.076C153.351 198.406 152.748 195.439 152.877 192.457C153.005 189.475 153.86 186.577 155.361 184.038C156.861 181.498 158.958 179.402 161.451 177.949C163.944 176.495 166.751 175.732 169.606 175.732H209.355C213.481 175.73 217.462 177.322 220.534 180.203C231.197 190.193 253.598 218.991 231.377 270.518L231.161 271.021Z" fill="#CCCCCC"/>
<path d="M168.617 233.908L143.304 221.517C142.584 221.164 141.945 220.653 141.43 220.019C140.916 219.385 140.538 218.643 140.323 217.842C140.108 217.041 140.06 216.202 140.183 215.38C140.306 214.558 140.597 213.774 141.036 213.081L156.42 188.785C158.166 184.942 161.297 181.98 165.129 180.548C168.96 179.116 173.178 179.331 176.857 181.146C180.537 182.961 183.378 186.228 184.758 190.23C186.139 194.233 185.945 198.644 184.22 202.497L176.265 230.326C176.037 231.122 175.647 231.858 175.123 232.483C174.598 233.108 173.951 233.608 173.225 233.948C172.5 234.288 171.712 234.46 170.917 234.453C170.122 234.446 169.338 234.26 168.617 233.908Z" fill="#CCCCCC"/>
<path d="M199.243 548.605H213.327L220.028 491.792L199.24 491.794L199.243 548.605Z" fill="#FFB8B8"/>
<path d="M240.49 562.281L196.224 562.283L196.224 544.398L223.387 544.397C227.923 544.396 232.273 546.281 235.481 549.635C238.688 552.989 240.49 557.538 240.49 562.281Z" fill="#2F2E41"/>
<path d="M204.561 526.956C203.294 526.958 202.066 526.503 201.083 525.669C200.1 524.834 199.422 523.67 199.164 522.374C195.115 502.425 174.089 400.247 157.677 347.616C140.98 294.068 169.417 269.677 175.287 265.332C175.912 264.87 176.409 264.243 176.726 263.515L180.991 253.704C181.433 252.691 182.144 251.832 183.04 251.23C183.935 250.628 184.978 250.308 186.042 250.308H186.077C218.048 250.508 228.796 261.047 231.933 265.569C232.395 266.243 232.712 267.014 232.862 267.828C233.011 268.643 232.99 269.481 232.798 270.286L212.57 357.563C212.444 358.105 212.416 358.665 212.486 359.217L232.612 517.685C232.709 518.447 232.659 519.221 232.467 519.963C232.275 520.704 231.943 521.398 231.491 522.004C231.04 522.611 230.477 523.117 229.837 523.493C229.196 523.87 228.49 524.109 227.761 524.197L205.21 526.917C204.995 526.943 204.778 526.956 204.561 526.956Z" fill="#2F2E41"/>
<path d="M161.593 118.298C168.041 122.946 175.694 125.419 183.525 125.386C180.732 127.412 177.551 128.78 174.204 129.397C184.616 131.732 195.377 131.795 205.813 129.582C208.133 129.193 210.371 128.389 212.43 127.206C213.456 126.606 214.35 125.788 215.054 124.804C215.757 123.82 216.255 122.692 216.515 121.493C217.208 117.35 214.121 113.586 210.913 111.049C206.001 107.224 200.337 104.589 194.332 103.334C188.327 102.079 182.13 102.236 176.19 103.793C172.311 104.841 168.425 106.613 165.906 109.87C163.386 113.128 162.64 118.15 165.04 121.505L161.593 118.298Z" fill="#2F2E41"/>
<path d="M679.548 246.292C687.796 246.292 694.483 239.3 694.483 230.674C694.483 222.048 687.796 215.055 679.548 215.055C671.299 215.055 664.613 222.048 664.613 230.674C664.613 239.3 671.299 246.292 679.548 246.292Z" fill="#43C6AC"/>
<path d="M678.067 236.632C677.731 236.632 677.404 236.519 677.135 236.308L677.118 236.295L673.608 233.485C673.445 233.355 673.308 233.192 673.205 233.007C673.102 232.821 673.035 232.616 673.008 232.404C672.981 232.191 672.994 231.975 673.047 231.768C673.1 231.561 673.191 231.366 673.316 231.196C673.441 231.026 673.596 230.883 673.774 230.776C673.952 230.668 674.148 230.599 674.351 230.571C674.554 230.543 674.761 230.557 674.959 230.613C675.157 230.669 675.343 230.765 675.505 230.896L677.779 232.719L683.151 225.392C683.276 225.222 683.431 225.079 683.608 224.972C683.786 224.865 683.981 224.795 684.184 224.767C684.387 224.739 684.594 224.753 684.792 224.809C684.989 224.864 685.175 224.96 685.337 225.09L685.304 225.137L685.338 225.091C685.666 225.354 685.881 225.743 685.935 226.171C685.989 226.6 685.878 227.034 685.627 227.377L679.308 235.995C679.161 236.194 678.973 236.355 678.758 236.465C678.543 236.575 678.307 236.632 678.067 236.632Z" fill="white"/>
<path d="M679.548 291.946C687.796 291.946 694.483 284.953 694.483 276.328C694.483 267.702 687.796 260.709 679.548 260.709C671.299 260.709 664.613 267.702 664.613 276.328C664.613 284.953 671.299 291.946 679.548 291.946Z" fill="#43C6AC"/>
<path d="M678.067 282.286C677.731 282.286 677.404 282.173 677.135 281.962L677.118 281.949L673.608 279.139C673.445 279.009 673.308 278.846 673.205 278.661C673.102 278.475 673.035 278.27 673.008 278.058C672.981 277.845 672.994 277.629 673.047 277.422C673.1 277.215 673.191 277.02 673.316 276.85C673.441 276.68 673.596 276.537 673.774 276.43C673.952 276.322 674.148 276.253 674.351 276.225C674.554 276.197 674.761 276.211 674.959 276.267C675.157 276.323 675.343 276.419 675.505 276.55L677.779 278.373L683.151 271.046C683.276 270.876 683.431 270.733 683.608 270.626C683.786 270.519 683.981 270.449 684.184 270.421C684.387 270.393 684.594 270.407 684.792 270.463C684.989 270.518 685.175 270.614 685.337 270.744L685.304 270.791L685.338 270.745C685.666 271.008 685.881 271.397 685.935 271.825C685.989 272.254 685.878 272.688 685.627 273.031L679.308 281.649C679.161 281.848 678.973 282.009 678.758 282.119C678.543 282.229 678.307 282.287 678.067 282.286Z" fill="white"/>
<path d="M687.59 344.809C695.838 344.809 702.525 337.816 702.525 329.19C702.525 320.564 695.838 313.572 687.59 313.572C679.341 313.572 672.655 320.564 672.655 329.19C672.655 337.816 679.341 344.809 687.59 344.809Z" fill="#43C6AC"/>
<path d="M686.109 335.148C685.773 335.149 685.446 335.035 685.177 334.825L685.16 334.811L681.65 332.001C681.487 331.871 681.35 331.709 681.247 331.523C681.144 331.338 681.077 331.133 681.05 330.92C681.023 330.708 681.036 330.492 681.089 330.284C681.142 330.077 681.233 329.883 681.358 329.713C681.482 329.542 681.638 329.399 681.816 329.292C681.993 329.185 682.189 329.115 682.393 329.087C682.596 329.06 682.803 329.074 683.001 329.13C683.199 329.185 683.384 329.282 683.547 329.412L685.82 331.235L691.193 323.908C691.317 323.738 691.473 323.596 691.65 323.489C691.827 323.382 692.023 323.312 692.226 323.284C692.429 323.256 692.635 323.27 692.833 323.325C693.031 323.381 693.217 323.476 693.379 323.607L693.346 323.654L693.38 323.607C693.708 323.871 693.922 324.259 693.976 324.688C694.03 325.117 693.92 325.55 693.668 325.894L687.349 334.512C687.203 334.71 687.015 334.871 686.8 334.982C686.585 335.092 686.348 335.149 686.109 335.148Z" fill="white"/>
<path d="M831.605 459.592C831.451 459.592 831.353 459.588 831.319 459.586L812.777 459.588V456.729H831.386C831.817 456.745 840.607 457.005 848.707 446.728C860.776 431.41 870.688 393.493 849.365 299.837C820.693 173.902 844.607 62.6467 856.219 20.6589C856.791 18.5816 856.893 16.3936 856.518 14.2678C856.142 12.142 855.299 10.1367 854.055 8.41022C852.811 6.68377 851.2 5.2835 849.349 4.32008C847.499 3.35667 845.46 2.85649 843.392 2.85906H566.481C564.375 2.86201 562.3 3.38402 560.424 4.38274C558.548 5.38147 556.923 6.82876 555.682 8.60713C550.763 15.6835 544.012 29.2779 539.788 53.8588L537.097 53.3534C541.413 28.2385 548.383 14.2442 553.471 6.92631C554.966 4.78346 556.923 3.03952 559.184 1.83606C561.444 0.632604 563.944 0.00355935 566.481 7.78117e-06H843.392C845.884 -0.0024992 848.341 0.60081 850.571 1.76227C852.801 2.92373 854.741 4.61153 856.24 6.6923C857.739 8.77308 858.755 11.1898 859.207 13.7516C859.659 16.3134 859.535 18.95 858.845 21.4532C847.293 63.2232 823.503 173.902 852.025 299.175C873.648 394.148 863.253 432.887 850.725 448.662C842.462 459.065 833.358 459.592 831.605 459.592Z" fill="#E6E6E6"/>
<path d="M781.711 511.77C781.556 511.77 781.459 511.766 781.425 511.764L762.883 511.766V508.907H781.492C781.925 508.921 790.713 509.182 798.812 498.905C810.882 483.588 820.794 445.67 799.47 352.014C770.798 226.08 794.712 114.824 806.324 72.8364C806.896 70.7591 806.999 68.5711 806.623 66.4453C806.248 64.3195 805.404 62.3142 804.16 60.5877C802.916 58.8613 801.305 57.461 799.455 56.4976C797.604 55.5342 795.565 55.034 793.498 55.0366H516.586C514.481 55.0395 512.406 55.5615 510.53 56.5602C508.653 57.559 507.029 59.0062 505.788 60.7846C500.868 67.861 494.118 81.4554 489.893 106.036L487.203 105.531C491.519 80.416 498.489 66.4217 503.576 59.1038C505.071 56.9609 507.029 55.217 509.289 54.0135C511.55 52.8101 514.05 52.181 516.586 52.1775H793.498C795.989 52.175 798.446 52.7783 800.676 53.9398C802.906 55.1012 804.847 56.789 806.346 58.8698C807.844 60.9506 808.86 63.3673 809.312 65.9291C809.764 68.4909 809.64 71.1275 808.951 73.6307C797.398 115.401 773.608 226.079 802.13 351.352C823.753 446.326 813.358 485.065 800.831 500.839C792.567 511.243 783.463 511.77 781.711 511.77Z" fill="#CCCCCC"/>
<path d="M752.235 403.534C723.709 278.262 747.502 167.575 759.06 125.813C759.748 123.31 759.87 120.674 759.418 118.112C758.965 115.551 757.949 113.135 756.451 111.054C754.953 108.974 753.012 107.285 750.784 106.123C748.555 104.961 746.098 104.356 743.607 104.356H466.689C464.154 104.358 461.655 104.986 459.395 106.189C457.135 107.391 455.178 109.134 453.684 111.276C442.506 127.351 419.31 180.658 445.217 328.157C459.072 407.067 458.865 460.866 454.339 496.308C451.8 516.264 447.882 530.393 444.332 539.92L443.953 540.929C443.206 542.857 442.816 544.916 442.805 546.997C442.778 549.346 443.229 551.674 444.126 553.827C445.023 555.981 446.346 557.912 448.009 559.491C449.093 560.554 450.32 561.444 451.65 562.134C452.755 562.724 453.924 563.172 455.132 563.468C456.361 563.782 457.623 563.939 458.888 563.937H731.533C731.568 563.937 731.659 563.949 731.82 563.949C733.567 563.949 742.677 563.42 750.937 553.016C763.46 537.241 773.857 498.507 752.235 403.534ZM748.915 551.081C740.816 561.366 732.027 561.101 731.602 561.089H458.888C456.705 561.089 454.555 560.529 452.626 559.458C450.698 558.388 449.049 556.84 447.825 554.95C446.748 553.315 446.024 551.455 445.705 549.499C445.385 547.542 445.478 545.536 445.975 543.62C446.105 543.064 446.274 542.518 446.481 541.987C450.536 531.089 453.541 519.796 455.453 508.275C461.933 471.331 463.139 414.323 447.905 327.64C422.194 181.235 444.93 128.733 455.89 112.958C457.133 111.182 458.758 109.737 460.634 108.739C462.51 107.742 464.585 107.22 466.689 107.215H743.607C745.673 107.214 747.711 107.714 749.561 108.678C751.41 109.641 753.02 111.041 754.263 112.766C755.507 114.492 756.349 116.496 756.725 118.62C757.101 120.745 757 122.932 756.429 125.008C744.814 166.998 720.906 278.262 749.582 404.195C770.904 497.846 760.99 535.763 748.915 551.081Z" fill="#3F3D56"/>
<path d="M620.68 240.766H478.009C475.109 240.766 472.328 239.561 470.277 237.416C468.226 235.272 467.074 232.363 467.074 229.33C467.074 226.297 468.226 223.388 470.277 221.243C472.328 219.098 475.109 217.894 478.009 217.894H620.68C623.581 217.894 626.362 219.098 628.413 221.243C630.464 223.388 631.616 226.297 631.616 229.33C631.616 232.363 630.464 235.272 628.413 237.416C626.362 239.561 623.581 240.766 620.68 240.766Z" fill="#CCCCCC"/>
<path d="M620.68 290.025H478.009C475.109 290.025 472.328 288.82 470.277 286.675C468.226 284.53 467.074 281.622 467.074 278.588C467.074 275.555 468.226 272.647 470.277 270.502C472.328 268.357 475.109 267.152 478.009 267.152H620.68C623.581 267.152 626.362 268.357 628.413 270.502C630.464 272.647 631.616 275.555 631.616 278.588C631.616 281.622 630.464 284.53 628.413 286.675C626.362 288.82 623.581 290.025 620.68 290.025Z" fill="#CCCCCC"/>
<path d="M632.169 340.484H489.498C486.597 340.484 483.816 339.279 481.765 337.135C479.714 334.99 478.562 332.081 478.562 329.048C478.562 326.015 479.714 323.106 481.765 320.962C483.816 318.817 486.597 317.612 489.498 317.612H632.169C635.069 317.612 637.85 318.817 639.901 320.962C641.952 323.106 643.104 326.015 643.104 329.048C643.104 332.081 641.952 334.99 639.901 337.135C637.85 339.279 635.069 340.484 632.169 340.484Z" fill="#CCCCCC"/>
<path d="M640.211 393.347H497.54C494.64 393.347 491.858 392.142 489.807 389.997C487.757 387.852 486.604 384.944 486.604 381.911C486.604 378.878 487.757 375.969 489.807 373.824C491.858 371.679 494.64 370.474 497.54 370.474H640.211C643.111 370.474 645.893 371.679 647.944 373.824C649.995 375.969 651.147 378.878 651.147 381.911C651.147 384.944 649.995 387.852 647.944 389.997C645.893 392.142 643.111 393.347 640.211 393.347Z" fill="#CCCCCC"/>
<path d="M640.271 151.969H537.749C536.312 151.97 534.889 151.676 533.561 151.102C532.233 150.528 531.026 149.686 530.009 148.624C528.993 147.561 528.186 146.3 527.636 144.912C527.086 143.524 526.802 142.036 526.802 140.533C526.802 139.03 527.086 137.542 527.636 136.154C528.186 134.765 528.993 133.504 530.009 132.442C531.026 131.38 532.233 130.538 533.561 129.964C534.889 129.39 536.312 129.095 537.749 129.097H640.271C643.171 129.097 645.953 130.302 648.004 132.446C650.055 134.591 651.207 137.5 651.207 140.533C651.207 143.566 650.055 146.475 648.004 148.619C645.953 150.764 643.171 151.969 640.271 151.969Z" fill="#43C6AC"/>
<path d="M696.78 397.529C705.029 397.529 711.715 390.537 711.715 381.911C711.715 373.285 705.029 366.292 696.78 366.292C688.532 366.292 681.845 373.285 681.845 381.911C681.845 390.537 688.532 397.529 696.78 397.529Z" fill="#CCCCCC"/>
<path d="M647.104 445.008H504.433C501.533 445.008 498.751 443.803 496.7 441.658C494.649 439.514 493.497 436.605 493.497 433.572C493.497 430.539 494.649 427.63 496.7 425.485C498.751 423.341 501.533 422.136 504.433 422.136H647.104C650.004 422.136 652.786 423.341 654.836 425.485C656.887 427.63 658.039 430.539 658.039 433.572C658.039 436.605 656.887 439.514 654.836 441.658C652.786 443.803 650.004 445.008 647.104 445.008Z" fill="#CCCCCC"/>
<path d="M703.674 449.191C711.923 449.191 718.609 442.198 718.609 433.572C718.609 424.946 711.923 417.954 703.674 417.954C695.426 417.954 688.739 424.946 688.739 433.572C688.739 442.198 695.426 449.191 703.674 449.191Z" fill="#CCCCCC"/>
</g>
<defs>
<clipPath id="clip0">
<rect width="975" height="564" fill="white"/>
</clipPath>
</defs>
</svg>
