<svg width="975" height="564" viewBox="0 0 975 564" fill="none" xmlns="http://www.w3.org/2000/svg">
<g clip-path="url(#clip0)">
<path d="M450.237 534.996C448.796 534.994 447.381 534.619 446.129 533.907L208.593 399.436C206.663 398.34 205.245 396.522 204.651 394.38C204.057 392.239 204.336 389.949 205.426 388.013L392.515 56.6577C393.056 55.6992 393.78 54.8569 394.646 54.1787C395.512 53.5006 396.503 52.9999 397.563 52.7054C398.622 52.4109 399.729 52.3283 400.82 52.4622C401.912 52.5962 402.966 52.9442 403.923 53.4862L641.457 187.957C643.388 189.053 644.806 190.871 645.4 193.012C645.994 195.154 645.715 197.444 644.626 199.38L457.536 530.734C456.997 531.694 456.274 532.538 455.408 533.217C454.541 533.895 453.549 534.395 452.488 534.687C451.755 534.891 450.998 534.995 450.237 534.996Z" fill="#E6E6E6"/>
<path d="M385.889 69.6394L384.935 71.33L635.976 213.447L636.931 211.757L385.889 69.6394Z" fill="white"/>
<path d="M368.708 100.07L367.753 101.761L618.795 243.878L619.749 242.187L368.708 100.07Z" fill="white"/>
<path d="M351.527 130.5L350.572 132.191L601.613 274.308L602.568 272.618L351.527 130.5Z" fill="white"/>
<path d="M334.344 160.931L333.39 162.622L584.431 304.739L585.386 303.048L334.344 160.931Z" fill="white"/>
<path d="M317.164 191.362L316.209 193.052L567.251 335.169L568.205 333.479L317.164 191.362Z" fill="white"/>
<path d="M299.982 221.792L299.027 223.483L550.068 365.6L551.023 363.909L299.982 221.792Z" fill="white"/>
<path d="M282.8 252.223L281.845 253.913L532.887 396.03L533.841 394.34L282.8 252.223Z" fill="white"/>
<path d="M265.619 282.653L264.664 284.344L515.705 426.461L516.66 424.77L265.619 282.653Z" fill="white"/>
<path d="M248.436 313.084L247.482 314.774L498.523 456.891L499.478 455.201L248.436 313.084Z" fill="white"/>
<path d="M231.255 343.514L230.3 345.205L481.342 487.322L482.296 485.631L231.255 343.514Z" fill="white"/>
<path d="M214.073 373.945L213.119 375.635L464.16 517.752L465.115 516.062L214.073 373.945Z" fill="white"/>
<path d="M428.14 484.598C426.699 484.597 425.284 484.221 424.031 483.509L186.496 349.038C184.566 347.942 183.148 346.124 182.554 343.982C181.96 341.841 182.239 339.551 183.329 337.615L370.418 6.25982C370.959 5.30136 371.683 4.45898 372.549 3.78083C373.415 3.10268 374.406 2.60204 375.466 2.30752C376.525 2.013 377.632 1.93037 378.723 2.06434C379.814 2.19832 380.869 2.54629 381.826 3.08835L619.36 137.559C621.291 138.655 622.709 140.473 623.303 142.615C623.897 144.756 623.618 147.046 622.528 148.982L435.439 480.336C434.9 481.297 434.177 482.141 433.31 482.819C432.444 483.498 431.452 483.997 430.391 484.289C429.658 484.494 428.901 484.597 428.14 484.598Z" fill="#F2F2F2"/>
<path d="M363.793 19.2415L362.839 20.9321L613.88 163.049L614.835 161.359L363.793 19.2415Z" fill="white"/>
<path d="M346.611 49.6722L345.656 51.3627L596.698 193.48L597.652 191.789L346.611 49.6722Z" fill="white"/>
<path d="M329.429 80.1026L328.475 81.7931L579.516 223.91L580.471 222.22L329.429 80.1026Z" fill="white"/>
<path d="M312.248 110.533L311.293 112.224L562.335 254.341L563.289 252.65L312.248 110.533Z" fill="white"/>
<path d="M295.067 140.964L294.112 142.654L545.153 284.771L546.108 283.081L295.067 140.964Z" fill="white"/>
<path d="M277.885 171.394L276.931 173.085L527.972 315.202L528.926 313.511L277.885 171.394Z" fill="white"/>
<path d="M260.704 201.825L259.749 203.515L510.791 345.632L511.745 343.942L260.704 201.825Z" fill="white"/>
<path d="M243.521 232.255L242.567 233.946L493.608 376.063L494.563 374.373L243.521 232.255Z" fill="white"/>
<path d="M226.34 262.686L225.385 264.376L476.427 406.493L477.381 404.803L226.34 262.686Z" fill="white"/>
<path d="M209.158 293.116L208.204 294.807L459.245 436.924L460.2 435.234L209.158 293.116Z" fill="white"/>
<path d="M191.977 323.547L191.022 325.237L442.064 467.355L443.018 465.664L191.977 323.547Z" fill="white"/>
<path d="M404.469 -2.86102e-06H24.8508V528.564H404.469C405.833 528.564 407.14 528.021 408.104 527.056C409.069 526.09 409.61 524.781 409.61 523.415V5.14834C409.61 3.78292 409.069 2.47345 408.104 1.50795C407.14 0.542458 405.833 2.64785e-05 404.469 -2.86102e-06ZM46.2739 513.977C44.4096 513.977 42.5872 513.423 41.037 512.386C39.4869 511.349 38.2787 509.875 37.5653 508.15C36.8518 506.425 36.6652 504.527 37.0289 502.697C37.3926 500.866 38.2903 499.184 39.6086 497.864C40.9269 496.544 42.6065 495.645 44.435 495.281C46.2635 494.916 48.1588 495.103 49.8812 495.818C51.6036 496.532 53.0758 497.742 54.1115 499.294C55.1473 500.846 55.7001 502.671 55.7001 504.538C55.7001 505.777 55.4563 507.005 54.9826 508.15C54.5089 509.295 53.8146 510.336 52.9393 511.212C52.064 512.089 51.0248 512.784 49.8812 513.258C48.7376 513.732 47.5118 513.977 46.2739 513.977ZM46.2739 465.925C44.4096 465.925 42.5872 465.372 41.0371 464.335C39.4869 463.298 38.2787 461.823 37.5653 460.099C36.8519 458.374 36.6652 456.476 37.0289 454.645C37.3926 452.814 38.2904 451.133 39.6086 449.813C40.9269 448.493 42.6065 447.594 44.435 447.229C46.2635 446.865 48.1588 447.052 49.8812 447.767C51.6036 448.481 53.0758 449.691 54.1115 451.243C55.1473 452.795 55.7001 454.62 55.7001 456.487C55.7001 457.726 55.4563 458.954 54.9826 460.099C54.5089 461.244 53.8146 462.284 52.9393 463.161C52.064 464.037 51.0249 464.733 49.8812 465.207C48.7376 465.681 47.5118 465.925 46.2739 465.925ZM46.2739 417.874C44.4096 417.874 42.5872 417.321 41.0371 416.283C39.4869 415.246 38.2787 413.772 37.5653 412.047C36.8519 410.323 36.6652 408.425 37.0289 406.594C37.3926 404.763 38.2904 403.081 39.6086 401.761C40.9269 400.441 42.6065 399.542 44.435 399.178C46.2635 398.814 48.1588 399.001 49.8812 399.715C51.6036 400.43 53.0758 401.639 54.1115 403.192C55.1473 404.744 55.7001 406.569 55.7001 408.436C55.7001 409.675 55.4563 410.902 54.9826 412.047C54.5089 413.193 53.8146 414.233 52.9393 415.11C52.064 415.986 51.0248 416.681 49.8812 417.156C48.7376 417.63 47.5118 417.874 46.2739 417.874ZM46.2739 369.823C44.4096 369.823 42.5872 369.269 41.0371 368.232C39.4869 367.195 38.2787 365.721 37.5653 363.996C36.8519 362.272 36.6652 360.374 37.0289 358.543C37.3926 356.712 38.2904 355.03 39.6086 353.71C40.9269 352.39 42.6065 351.491 44.435 351.127C46.2635 350.763 48.1588 350.95 49.8812 351.664C51.6036 352.378 53.0758 353.588 54.1115 355.14C55.1473 356.693 55.7001 358.517 55.7001 360.384C55.7001 361.624 55.4563 362.851 54.9826 363.996C54.5089 365.141 53.8146 366.182 52.9393 367.058C52.064 367.935 51.0248 368.63 49.8812 369.104C48.7376 369.579 47.5118 369.823 46.2739 369.823ZM46.2739 321.772C44.4096 321.772 42.5872 321.218 41.0371 320.181C39.4869 319.144 38.2787 317.67 37.5653 315.945C36.8519 314.22 36.6652 312.323 37.0289 310.492C37.3926 308.661 38.2904 306.979 39.6086 305.659C40.9269 304.339 42.6065 303.44 44.435 303.076C46.2635 302.712 48.1588 302.898 49.8812 303.613C51.6036 304.327 53.0758 305.537 54.1115 307.089C55.1473 308.641 55.7001 310.466 55.7001 312.333C55.7001 313.573 55.4563 314.8 54.9826 315.945C54.5089 317.09 53.8146 318.131 52.9393 319.007C52.064 319.884 51.0248 320.579 49.8812 321.053C48.7376 321.527 47.5118 321.772 46.2739 321.772ZM46.2739 273.72C44.4096 273.72 42.5872 273.167 41.0371 272.13C39.4869 271.093 38.2787 269.618 37.5653 267.894C36.8519 266.169 36.6652 264.271 37.0289 262.44C37.3926 260.609 38.2904 258.928 39.6086 257.608C40.9269 256.288 42.6065 255.389 44.435 255.024C46.2635 254.66 48.1588 254.847 49.8812 255.562C51.6036 256.276 53.0758 257.486 54.1115 259.038C55.1473 260.59 55.7001 262.415 55.7001 264.282C55.7001 265.521 55.4563 266.749 54.9826 267.894C54.5089 269.039 53.8146 270.079 52.9393 270.956C52.064 271.832 51.0248 272.528 49.8812 273.002C48.7376 273.476 47.5118 273.72 46.2739 273.72ZM46.2739 225.669C44.4096 225.669 42.5872 225.116 41.0371 224.078C39.4869 223.041 38.2787 221.567 37.5653 219.843C36.8519 218.118 36.6652 216.22 37.0289 214.389C37.3926 212.558 38.2904 210.876 39.6086 209.556C40.9269 208.236 42.6065 207.337 44.435 206.973C46.2635 206.609 48.1588 206.796 49.8812 207.51C51.6036 208.225 53.0758 209.435 54.1115 210.987C55.1473 212.539 55.7001 214.364 55.7001 216.231C55.7001 217.47 55.4563 218.697 54.9826 219.843C54.5089 220.988 53.8146 222.028 52.9393 222.905C52.064 223.781 51.0248 224.476 49.8812 224.951C48.7376 225.425 47.5118 225.669 46.2739 225.669ZM46.2739 177.618C44.4096 177.618 42.5872 177.064 41.0371 176.027C39.4869 174.99 38.2787 173.516 37.5653 171.791C36.8519 170.067 36.6652 168.169 37.0289 166.338C37.3926 164.507 38.2904 162.825 39.6086 161.505C40.9269 160.185 42.6065 159.286 44.435 158.922C46.2635 158.558 48.1588 158.745 49.8812 159.459C51.6036 160.174 53.0758 161.383 54.1115 162.935C55.1473 164.488 55.7001 166.313 55.7001 168.179C55.7001 169.419 55.4563 170.646 54.9826 171.791C54.5089 172.936 53.8146 173.977 52.9393 174.853C52.064 175.73 51.0248 176.425 49.8812 176.899C48.7376 177.374 47.5118 177.618 46.2739 177.618ZM46.2739 129.567C44.4096 129.567 42.5872 129.013 41.0371 127.976C39.4869 126.939 38.2787 125.465 37.5653 123.74C36.8519 122.015 36.6652 120.118 37.0289 118.287C37.3926 116.456 38.2904 114.774 39.6086 113.454C40.9269 112.134 42.6065 111.235 44.435 110.871C46.2635 110.507 48.1588 110.694 49.8812 111.408C51.6036 112.122 53.0758 113.332 54.1115 114.884C55.1473 116.436 55.7001 118.261 55.7001 120.128C55.7001 121.368 55.4563 122.595 54.9826 123.74C54.5089 124.885 53.8146 125.926 52.9393 126.802C52.064 127.679 51.0248 128.374 49.8812 128.848C48.7376 129.323 47.5118 129.567 46.2739 129.567ZM46.2739 81.5155C44.4096 81.5155 42.5872 80.9619 41.037 79.9248C39.4869 78.8877 38.2787 77.4135 37.5653 75.6889C36.8518 73.9642 36.6652 72.0664 37.0289 70.2355C37.3926 68.4046 38.2903 66.7227 39.6086 65.4027C40.9269 64.0827 42.6065 63.1837 44.435 62.8195C46.2635 62.4554 48.1588 62.6423 49.8812 63.3567C51.6036 64.071 53.0758 65.2808 54.1115 66.833C55.1473 68.3852 55.7001 70.21 55.7001 72.0768C55.7001 73.3163 55.4563 74.5437 54.9826 75.6889C54.5089 76.834 53.8146 77.8745 52.9393 78.751C52.064 79.6274 51.0248 80.3227 49.8812 80.797C48.7376 81.2714 47.5118 81.5155 46.2739 81.5155ZM46.2739 33.4642C44.4096 33.4643 42.5872 32.9107 41.037 31.8736C39.4869 30.8364 38.2787 29.3623 37.5653 27.6376C36.8518 25.913 36.6652 24.0151 37.0289 22.1842C37.3926 20.3533 38.2903 18.6715 39.6086 17.3515C40.9269 16.0315 42.6065 15.1325 44.435 14.7683C46.2635 14.4041 48.1588 14.5911 49.8812 15.3054C51.6036 16.0198 53.0758 17.2296 54.1115 18.7818C55.1473 20.334 55.7001 22.1588 55.7001 24.0256C55.7001 25.2651 55.4563 26.4925 54.9826 27.6376C54.5089 28.7828 53.8146 29.8233 52.9393 30.6997C52.064 31.5762 51.0248 32.2715 49.8812 32.7458C48.7376 33.2201 47.5118 33.4643 46.2739 33.4642Z" fill="#3F3D56"/>
<path d="M24.8508 29.174C22.3073 29.174 0 29.0537 0 24.8837C0 20.7136 22.3073 20.5934 24.8508 20.5934V22.3095C11.7121 22.3095 3.19275 23.7822 1.82075 24.8837C3.19275 25.9851 11.7121 27.4578 24.8508 27.4578C37.9603 27.4578 46.4708 25.9914 47.8715 24.8912C47.2049 24.4199 44.482 23.4319 37.1784 22.7997L37.3259 21.0903C49.7017 22.1612 49.7017 24.1392 49.7017 24.8837C49.7017 29.0537 27.3944 29.174 24.8508 29.174Z" fill="#3494E6"/>
<path d="M24.8508 76.3672C22.3073 76.3672 0 76.247 0 72.0769C0 67.9069 22.3073 67.7867 24.8508 67.7867V69.5028C11.7121 69.5028 3.19275 70.9755 1.82075 72.077C3.19275 73.1784 11.7121 74.6512 24.8508 74.6512C37.9603 74.6512 46.4708 73.1847 47.8715 72.0845C47.2049 71.6132 44.482 70.6253 37.1784 69.9931L37.3259 68.2836C49.7017 69.3545 49.7017 71.3325 49.7017 72.077C49.7017 76.247 27.3944 76.3672 24.8508 76.3672Z" fill="#3494E6"/>
<path d="M24.8508 124.418C22.3073 124.418 0 124.298 0 120.128C0 115.958 22.3073 115.838 24.8508 115.838V117.554C11.7121 117.554 3.19275 119.027 1.82075 120.128C3.19275 121.23 11.7121 122.702 24.8508 122.702C37.9603 122.702 46.4708 121.236 47.8715 120.136C47.2049 119.664 44.482 118.676 37.1784 118.044L37.3259 116.335C49.7017 117.406 49.7017 119.384 49.7017 120.128C49.7017 124.298 27.3944 124.418 24.8508 124.418Z" fill="#3494E6"/>
<path d="M24.8508 172.47C22.3073 172.47 0 172.349 0 168.179C0 164.009 22.3073 163.889 24.8508 163.889V165.605C11.7121 165.605 3.19275 167.078 1.82075 168.179C3.19275 169.281 11.7121 170.754 24.8508 170.754C37.9603 170.754 46.4708 169.287 47.8715 168.187C47.2049 167.716 44.482 166.728 37.1784 166.095L37.3259 164.386C49.7017 165.457 49.7017 167.435 49.7017 168.179C49.7017 172.349 27.3944 172.47 24.8508 172.47Z" fill="#3494E6"/>
<path d="M24.8508 220.521C22.3073 220.521 0 220.401 0 216.231C0 212.061 22.3073 211.94 24.8508 211.94V213.656C11.7121 213.656 3.19275 215.129 1.82075 216.231C3.19275 217.332 11.7121 218.805 24.8508 218.805C37.9603 218.805 46.4708 217.338 47.8715 216.238C47.2049 215.767 44.482 214.779 37.1784 214.147L37.3259 212.437C49.7017 213.508 49.7017 215.486 49.7017 216.231C49.7017 220.401 27.3944 220.521 24.8508 220.521Z" fill="#3494E6"/>
<path d="M24.8508 268.572C22.3073 268.572 0 268.452 0 264.282C0 260.112 22.3073 259.991 24.8508 259.991V261.708C11.7121 261.708 3.19275 263.18 1.82075 264.282C3.19275 265.383 11.7121 266.856 24.8508 266.856C37.9603 266.856 46.4708 265.389 47.8715 264.289C47.2049 263.818 44.482 262.83 37.1784 262.198L37.3259 260.488C49.7017 261.559 49.7017 263.537 49.7017 264.282C49.7017 268.452 27.3944 268.572 24.8508 268.572Z" fill="#3494E6"/>
<path d="M24.8508 316.623C22.3073 316.623 0 316.503 0 312.333C0 308.163 22.3073 308.043 24.8508 308.043V309.759C11.7121 309.759 3.19275 311.231 1.82075 312.333C3.19275 313.434 11.7121 314.907 24.8508 314.907C37.9603 314.907 46.4708 313.441 47.8715 312.341C47.2049 311.869 44.482 310.881 37.1784 310.249L37.3259 308.54C49.7017 309.61 49.7017 311.588 49.7017 312.333C49.7017 316.503 27.3944 316.623 24.8508 316.623Z" fill="#3494E6"/>
<path d="M24.8508 364.674C22.3073 364.674 0 364.554 0 360.384C0 356.214 22.3073 356.094 24.8508 356.094V357.81C11.7121 357.81 3.19275 359.283 1.82075 360.384C3.19275 361.486 11.7121 362.958 24.8508 362.958C37.9603 362.958 46.4708 361.492 47.8715 360.392C47.2049 359.92 44.482 358.932 37.1784 358.3L37.3259 356.591C49.7017 357.662 49.7017 359.64 49.7017 360.384C49.7017 364.554 27.3944 364.674 24.8508 364.674Z" fill="#3494E6"/>
<path d="M24.8508 412.726C22.3073 412.726 0 412.606 0 408.435C0 404.265 22.3073 404.145 24.8508 404.145V405.861C11.7121 405.861 3.19275 407.334 1.82075 408.435C3.19275 409.537 11.7121 411.01 24.8508 411.01C37.9603 411.01 46.4708 409.543 47.8715 408.443C47.2049 407.972 44.482 406.984 37.1784 406.351L37.3259 404.642C49.7017 405.713 49.7017 407.691 49.7017 408.435C49.7017 412.606 27.3944 412.726 24.8508 412.726Z" fill="#3494E6"/>
<path d="M24.8508 460.777C22.3073 460.777 0 460.657 0 456.487C0 452.317 22.3073 452.196 24.8508 452.196V453.912C11.7121 453.912 3.19275 455.385 1.82075 456.487C3.19275 457.588 11.7121 459.061 24.8508 459.061C37.9603 459.061 46.4708 457.594 47.8715 456.494C47.2049 456.023 44.482 455.035 37.1784 454.403L37.3259 452.693C49.7017 453.764 49.7017 455.742 49.7017 456.487C49.7017 460.657 27.3944 460.777 24.8508 460.777Z" fill="#3494E6"/>
<path d="M24.8508 508.828C22.3073 508.828 0 508.708 0 504.538C0 500.368 22.3073 500.248 24.8508 500.248V501.964C11.7121 501.964 3.19275 503.436 1.82075 504.538C3.19275 505.639 11.7121 507.112 24.8508 507.112C37.9603 507.112 46.4708 505.646 47.8715 504.546C47.2049 504.074 44.482 503.086 37.1784 502.454L37.3259 500.745C49.7017 501.815 49.7017 503.793 49.7017 504.538C49.7017 508.708 27.3944 508.828 24.8508 508.828Z" fill="#3494E6"/>
<path d="M326.917 202.073H138.393C136.917 202.071 135.501 201.483 134.457 200.437C133.412 199.392 132.825 197.974 132.823 196.495V122.702C132.825 121.224 133.412 119.806 134.457 118.76C135.501 117.715 136.916 117.127 138.393 117.125H326.917C328.394 117.127 329.809 117.715 330.854 118.76C331.898 119.806 332.485 121.224 332.487 122.702V196.495C332.485 197.974 331.898 199.392 330.854 200.437C329.809 201.483 328.394 202.071 326.917 202.073Z" fill="white"/>
<path d="M256.649 142.438H208.661C207.525 142.438 206.435 141.986 205.631 141.181C204.828 140.376 204.376 139.285 204.376 138.147C204.376 137.009 204.828 135.918 205.631 135.114C206.435 134.309 207.525 133.857 208.661 133.857H256.649C257.785 133.857 258.875 134.309 259.679 135.114C260.482 135.918 260.934 137.009 260.934 138.147C260.934 139.285 260.482 140.376 259.679 141.181C258.875 141.986 257.785 142.438 256.649 142.438H256.649Z" fill="#EC6EAD"/>
<path d="M283.214 163.889H182.097C180.961 163.889 179.871 163.437 179.067 162.633C178.264 161.828 177.812 160.737 177.812 159.599C177.812 158.461 178.264 157.37 179.067 156.565C179.871 155.761 180.961 155.309 182.097 155.309H283.214C284.35 155.309 285.44 155.761 286.244 156.565C287.047 157.37 287.499 158.461 287.499 159.599C287.499 160.737 287.047 161.828 286.244 162.633C285.44 163.437 284.35 163.889 283.214 163.889Z" fill="#EC6EAD"/>
<path d="M283.214 185.34H182.097C180.961 185.34 179.871 184.888 179.067 184.084C178.264 183.279 177.812 182.188 177.812 181.05C177.812 179.912 178.264 178.821 179.067 178.016C179.871 177.212 180.961 176.76 182.097 176.76H283.214C284.35 176.76 285.44 177.212 286.244 178.016C287.047 178.821 287.499 179.912 287.499 181.05C287.499 182.188 287.047 183.279 286.244 184.084C285.44 184.888 284.35 185.34 283.214 185.34Z" fill="#EC6EAD"/>
<path d="M772.93 178.15C775.608 178.151 778.231 177.394 780.497 175.967C782.764 174.54 784.582 172.501 785.742 170.085C786.902 167.668 787.356 164.973 787.053 162.309C786.75 159.646 785.702 157.122 784.029 155.029C777.029 146.269 761.704 147.611 755.573 138.22C750.378 130.263 755.175 119.335 762.094 112.824C775.64 100.079 797.324 96.9475 813.914 105.34C830.505 113.732 840.853 133.068 838.645 151.548C837.804 158.587 835.854 167.13 841.31 171.648C846.152 175.658 853.308 173.382 859.39 171.803C868.41 169.526 877.815 169.23 886.96 170.935C896.105 172.64 904.773 176.305 912.371 181.679C925.29 190.95 934.707 205.925 934.713 221.84C934.719 237.756 923.893 253.794 908.402 257.358C893.218 260.85 877.565 252.358 866.824 241.057C856.082 229.757 848.707 215.701 838.918 203.564C829.128 191.427 815.582 180.737 800.004 180.456C790.978 180.293 781.097 183.474 773.437 178.691" fill="#3494E6"/>
<path d="M779.627 184.488C796.279 184.488 809.778 170.971 809.778 154.297C809.778 137.623 796.279 124.106 779.627 124.106C762.975 124.106 749.476 137.623 749.476 154.297C749.476 170.971 762.975 184.488 779.627 184.488Z" fill="#FFB8B8"/>
<path d="M715.489 354.577C714.957 352.851 714.81 351.028 715.058 349.238C715.306 347.448 715.943 345.734 716.924 344.218C717.905 342.701 719.206 341.418 720.735 340.459C722.265 339.5 723.986 338.889 725.777 338.668L734.986 295.721L750.958 312.008L739.764 350.294C739.935 353.332 738.987 356.326 737.101 358.711C735.214 361.096 732.519 362.704 729.527 363.232C726.534 363.76 723.453 363.171 720.865 361.576C718.278 359.981 716.365 357.491 715.489 354.577Z" fill="#FFB8B8"/>
<path d="M870.358 541.113L855.567 543.891L810.975 397.234L842.627 393.132L870.358 541.113Z" fill="#FFB8B8"/>
<path d="M844.205 541.647L872.732 536.287L876.102 554.273L829.613 563.007C829.171 560.645 829.197 558.219 829.691 555.867C830.185 553.515 831.136 551.284 832.491 549.301C833.846 547.317 835.578 545.62 837.588 544.307C839.598 542.994 841.846 542.09 844.205 541.647Z" fill="#3494E6"/>
<path d="M773.426 549.01L758.377 549.009L756.127 413.196L788.16 413.198L773.426 549.01Z" fill="#FFB8B8"/>
<path d="M747.626 544.704H776.651V563.003H729.351C729.351 560.6 729.824 558.22 730.742 556C731.661 553.78 733.007 551.763 734.704 550.063C736.401 548.364 738.415 547.016 740.633 546.097C742.85 545.177 745.226 544.704 747.626 544.704Z" fill="#3494E6"/>
<path d="M749.201 431.68L750.584 365.306C750.478 364.372 739.606 263.813 735.554 238.118C731.437 212.008 752.712 198.62 752.926 198.488C753.879 198.097 754.74 197.767 755.6 197.449C765.662 193.637 776.597 192.752 787.141 194.897C797.685 197.043 807.407 202.131 815.186 209.574C823.24 217.015 829.063 226.558 832 237.13C834.937 247.702 834.872 258.885 831.812 269.422L824.308 295.437C862.754 365.036 870.644 394.986 870.719 395.28L870.742 395.37L870.737 395.464C869.358 423.066 754.75 431.297 749.872 431.634L749.201 431.68Z" fill="#EC6EAD"/>
<path d="M740.261 225.704L714.288 328.362L760.766 333.837L740.261 225.704Z" fill="#EC6EAD"/>
<path d="M803.047 310.559C803.365 308.78 804.068 307.092 805.108 305.615C806.147 304.138 807.498 302.907 809.064 302.009C810.63 301.111 812.373 300.568 814.172 300.417C815.97 300.267 817.78 300.513 819.473 301.139L847.314 267.194L854.056 288.999L826.584 317.891C825.345 320.669 823.132 322.896 820.364 324.15C817.595 325.403 814.464 325.596 811.563 324.692C808.662 323.789 806.192 321.851 804.623 319.246C803.053 316.641 802.493 313.55 803.047 310.559Z" fill="#FFB8B8"/>
<path d="M839.409 310.642L815.175 294.943L838.24 270.488L775.7 251.429L791.79 204.492L811.584 207.323L861.9 244.643C868.297 249.425 872.566 256.528 873.79 264.427C875.013 272.326 873.094 280.391 868.443 286.888L868.334 287.004L839.409 310.642Z" fill="#EC6EAD"/>
<path d="M752.477 137.137C765.451 145.068 780.078 149.893 795.219 151.239L790.713 145.834C793.994 147.048 797.446 147.735 800.941 147.867C804.431 147.813 808.089 146.467 810.07 143.588C810.954 142.157 811.479 140.534 811.6 138.856C811.722 137.178 811.436 135.495 810.768 133.952C809.394 130.873 807.257 128.197 804.56 126.179C799.778 122.392 794.135 119.847 788.133 118.773C782.131 117.699 775.957 118.129 770.162 120.023C766.186 121.213 762.625 123.5 759.888 126.622C757.291 129.83 751.627 132.715 752.957 136.623L752.477 137.137Z" fill="#3494E6"/>
<path d="M973.539 564H599.989C599.601 564 599.229 563.846 598.955 563.571C598.681 563.297 598.527 562.925 598.527 562.536C598.527 562.148 598.681 561.776 598.955 561.502C599.229 561.227 599.601 561.073 599.989 561.073H973.539C973.926 561.074 974.296 561.229 974.569 561.503C974.843 561.777 974.996 562.149 974.996 562.536C974.996 562.924 974.843 563.296 974.569 563.57C974.296 563.844 973.926 563.999 973.539 564Z" fill="#3F3D56"/>
</g>
<defs>
<clipPath id="clip0">
<rect width="975" height="564" fill="white"/>
</clipPath>
</defs>
</svg>
