<svg width="244" height="71" viewBox="0 0 244 71" fill="none" xmlns="http://www.w3.org/2000/svg">
<path d="M84.7625 28.3961H79.2905V3.19605H90.4505C93.4505 3.19605 95.6645 3.97605 97.0925 5.53605C98.5205 7.09605 99.2345 9.01605 99.2345 11.2961C99.2345 12.2801 99.0665 13.2341 98.7305 14.1581C98.3945 15.0821 97.8905 15.9401 97.2185 16.7321C96.5465 17.5241 95.6225 18.1601 94.4465 18.6401C93.2705 19.1201 91.9385 19.3601 90.4505 19.3601H84.7625V28.3961ZM84.7625 14.2121H90.6665C91.6265 14.2121 92.3465 13.9241 92.8265 13.3481C93.3065 12.7721 93.5465 12.0881 93.5465 11.2961C93.5465 10.5281 93.3185 9.85005 92.8625 9.26205C92.4065 8.67405 91.6745 8.38005 90.6665 8.38005H84.7625V14.2121ZM109.243 28.8281C106.603 28.8281 104.521 27.9761 102.997 26.2721C101.473 24.5681 100.711 22.2161 100.711 19.2161C100.711 16.2401 101.479 13.8881 103.015 12.1601C104.551 10.4321 106.627 9.56805 109.243 9.56805C111.835 9.56805 113.893 10.4321 115.417 12.1601C116.941 13.8881 117.703 16.2401 117.703 19.2161C117.703 22.2161 116.947 24.5681 115.435 26.2721C113.923 27.9761 111.859 28.8281 109.243 28.8281ZM109.243 23.7881C110.275 23.7881 111.073 23.3861 111.637 22.5821C112.201 21.7781 112.483 20.6561 112.483 19.2161C112.483 17.7761 112.201 16.6481 111.637 15.8321C111.073 15.0161 110.275 14.6081 109.243 14.6081C108.235 14.6081 107.431 15.0161 106.831 15.8321C106.231 16.6481 105.931 17.7761 105.931 19.2161C105.931 20.6561 106.231 21.7781 106.831 22.5821C107.431 23.3861 108.235 23.7881 109.243 23.7881ZM127.423 28.3961H122.203V10.0001H127.423V11.6561C127.663 11.1761 128.095 10.7081 128.719 10.2521C129.343 9.79605 130.075 9.56805 130.915 9.56805C132.355 9.56805 133.567 10.0841 134.551 11.1161L133.867 15.8681C132.859 15.0281 131.767 14.6081 130.591 14.6081C128.479 14.6081 127.423 15.8801 127.423 18.4241V28.3961ZM143.263 28.8281C140.167 28.8281 138.619 27.1481 138.619 23.7881V14.5721H136.099V10.0001H138.619V4.88805L143.803 2.40405V10.0001H147.799V14.5721H143.803V23.2841C143.803 23.6201 143.905 23.8781 144.109 24.0581C144.313 24.2381 144.559 24.3281 144.847 24.3281C145.903 24.3281 146.959 24.0881 148.015 23.6081L147.439 28.0001C146.311 28.5521 144.919 28.8281 143.263 28.8281ZM157.375 28.3961H152.155V10.0001H157.375V11.6561C157.615 11.1761 158.047 10.7081 158.671 10.2521C159.295 9.79605 160.027 9.56805 160.867 9.56805C162.307 9.56805 163.519 10.0841 164.503 11.1161L163.819 15.8681C162.811 15.0281 161.719 14.6081 160.543 14.6081C158.431 14.6081 157.375 15.8801 157.375 18.4241V28.3961ZM183.043 28.3961H177.859V27.0281C176.755 28.2281 175.231 28.8281 173.287 28.8281C171.247 28.8281 169.585 28.3061 168.301 27.2621C167.017 26.2181 166.375 24.7241 166.375 22.7801C166.375 20.8841 167.119 19.4261 168.607 18.4061C170.095 17.3861 171.835 16.8761 173.827 16.8761C175.555 16.8761 176.899 17.0921 177.859 17.5241V16.5161C177.859 15.6761 177.595 15.0341 177.067 14.5901C176.539 14.1461 175.807 13.9241 174.871 13.9241C172.879 13.9241 170.911 14.5721 168.967 15.8681L167.347 11.8721C169.603 10.3361 172.231 9.56805 175.231 9.56805C180.439 9.56805 183.043 11.9681 183.043 16.7681V28.3961ZM174.295 24.4361C175.591 24.4361 176.779 24.0041 177.859 23.1401V21.4841C176.899 21.1961 175.855 21.0521 174.727 21.0521C172.567 21.0521 171.487 21.6401 171.487 22.8161C171.487 23.8961 172.423 24.4361 174.295 24.4361ZM190.747 8.23605C189.931 8.23605 189.223 7.94205 188.623 7.35405C188.023 6.76605 187.723 6.06405 187.723 5.24805C187.723 4.43205 188.017 3.73605 188.605 3.16005C189.193 2.58405 189.907 2.29605 190.747 2.29605C191.587 2.29605 192.295 2.57805 192.871 3.14205C193.447 3.70605 193.735 4.40805 193.735 5.24805C193.735 6.06405 193.447 6.76605 192.871 7.35405C192.295 7.94205 191.587 8.23605 190.747 8.23605ZM193.339 28.3961H188.119V10.0001H193.339V28.3961ZM204.319 28.8281C201.223 28.8281 199.675 27.1481 199.675 23.7881V14.5721H197.155V10.0001H199.675V4.88805L204.859 2.40405V10.0001H208.855V14.5721H204.859V23.2841C204.859 23.6201 204.961 23.8781 205.165 24.0581C205.369 24.2381 205.615 24.3281 205.903 24.3281C206.959 24.3281 208.015 24.0881 209.071 23.6081L208.495 28.0001C207.367 28.5521 205.975 28.8281 204.319 28.8281Z" fill="white"/>
<path d="M90.4865 65.224C88.9025 65.224 87.4685 64.972 86.1845 64.468C84.9005 63.964 83.8385 63.286 82.9985 62.434C82.1585 61.582 81.4565 60.592 80.8925 59.464C80.3285 58.336 79.9205 57.166 79.6685 55.954C79.4165 54.742 79.2905 53.488 79.2905 52.192C79.2905 50.896 79.4165 49.642 79.6685 48.43C79.9205 47.218 80.3285 46.048 80.8925 44.92C81.4565 43.792 82.1585 42.802 82.9985 41.95C83.8385 41.098 84.9005 40.42 86.1845 39.916C87.4685 39.412 88.9025 39.16 90.4865 39.16C92.4305 39.16 94.1465 39.538 95.6345 40.294C97.1225 41.05 98.2865 42.07 99.1265 43.354C99.9665 44.638 100.597 46.024 101.017 47.512C101.437 49 101.647 50.56 101.647 52.192C101.647 53.824 101.437 55.384 101.017 56.872C100.597 58.36 99.9665 59.746 99.1265 61.03C98.2865 62.314 97.1225 63.334 95.6345 64.09C94.1465 64.846 92.4305 65.224 90.4865 65.224ZM90.4865 59.932C91.7345 59.932 92.7905 59.506 93.6545 58.654C94.5185 57.802 95.1185 56.818 95.4545 55.702C95.7905 54.586 95.9585 53.416 95.9585 52.192C95.9585 50.896 95.8025 49.69 95.4905 48.574C95.1785 47.458 94.5905 46.486 93.7265 45.658C92.8625 44.83 91.7825 44.416 90.4865 44.416C89.1905 44.416 88.1045 44.842 87.2285 45.694C86.3525 46.546 85.7585 47.53 85.4465 48.646C85.1345 49.762 84.9785 50.944 84.9785 52.192C84.9785 53.128 85.0745 54.028 85.2665 54.892C85.4585 55.756 85.7585 56.578 86.1665 57.358C86.5745 58.138 87.1505 58.762 87.8945 59.23C88.6385 59.698 89.5025 59.932 90.4865 59.932ZM116.191 50.968H112.339V64.792H107.119V50.968H104.671V46.396H107.119V43.66C107.119 40.66 108.691 39.16 111.835 39.16C113.587 39.16 115.039 39.472 116.191 40.096V44.308C115.183 43.9 114.307 43.696 113.563 43.696C112.747 43.696 112.339 44.044 112.339 44.74V46.396H116.191V50.968ZM150.643 64.792H144.667L142.795 59.896H133.327L131.455 64.792H125.479L135.415 39.592H140.671L150.643 64.792ZM135.127 54.856H140.959L138.799 49.42C138.463 48.604 138.211 47.896 138.043 47.296C137.947 47.704 137.695 48.412 137.287 49.42L135.127 54.856ZM181.027 44.848H173.791V64.792H168.319V44.848H161.083V39.592H181.027V44.848ZM187.435 44.632C186.619 44.632 185.911 44.338 185.311 43.75C184.711 43.162 184.411 42.46 184.411 41.644C184.411 40.828 184.705 40.132 185.293 39.556C185.881 38.98 186.595 38.692 187.435 38.692C188.275 38.692 188.983 38.974 189.559 39.538C190.135 40.102 190.423 40.804 190.423 41.644C190.423 42.46 190.135 43.162 189.559 43.75C188.983 44.338 188.275 44.632 187.435 44.632ZM190.027 64.792H184.807V46.396H190.027V64.792ZM222.283 64.792H217.063V55.288C217.063 53.68 216.871 52.564 216.487 51.94C216.103 51.316 215.419 51.004 214.435 51.004C213.307 51.004 212.533 51.31 212.113 51.922C211.693 52.534 211.483 53.608 211.483 55.144V64.792H206.263V55.288C206.263 53.68 206.071 52.564 205.687 51.94C205.303 51.316 204.619 51.004 203.635 51.004C202.507 51.004 201.733 51.31 201.313 51.922C200.893 52.534 200.683 53.608 200.683 55.144V64.792H195.463V46.396H200.683V48.088C201.835 46.672 203.239 45.964 204.895 45.964C207.151 45.964 208.687 46.816 209.503 48.52C210.751 46.816 212.671 45.964 215.263 45.964C217.495 45.964 219.223 46.516 220.447 47.62C221.671 48.724 222.283 50.656 222.283 53.416V64.792ZM235.351 65.224C232.639 65.224 230.503 64.372 228.943 62.668C227.383 60.964 226.603 58.6 226.603 55.576C226.603 52.624 227.389 50.284 228.961 48.556C230.533 46.828 232.663 45.964 235.351 45.964C237.799 45.964 239.791 46.708 241.327 48.196C242.863 49.684 243.631 51.844 243.631 54.676C243.631 55.852 243.583 56.752 243.487 57.376H231.715C231.763 58.528 232.123 59.386 232.795 59.95C233.467 60.514 234.319 60.796 235.351 60.796C237.031 60.796 238.411 60.148 239.491 58.852L242.515 61.876C240.667 64.108 238.279 65.224 235.351 65.224ZM231.751 53.452H238.627C238.363 51.412 237.199 50.392 235.135 50.392C234.199 50.392 233.431 50.662 232.831 51.202C232.231 51.742 231.871 52.492 231.751 53.452Z" fill="white"/>
<path d="M37.19 53.06L37.29 52.89C35.279 54.8852 32.9023 56.4742 30.29 57.57C27.6127 58.7236 24.7252 59.3092 21.81 59.29L10.93 70.22H0V15.6L15.6 4.57764e-05L26.53 11V32.76H37.46C38.9147 32.7817 40.3582 32.5025 41.7 31.94C42.9552 31.3994 44.1008 30.6335 45.08 29.68L52.8 37.46L37.19 53.06Z" fill="#FF68C3"/>
<path d="M26.5301 54.62H15.6001V4.27673e-05H37.4601C39.4172 -0.00387911 41.3656 0.261953 43.2501 0.79004C45.0721 1.29302 46.8203 2.03265 48.4501 2.99004C51.6918 4.90523 54.3932 7.61346 56.3001 10.86C57.2588 12.4975 58.0016 14.252 58.5101 16.08C59.0348 17.9651 59.2973 19.9134 59.2901 21.87C59.3085 24.7819 58.7228 27.666 57.5701 30.34C55.3544 35.5823 51.1823 39.7543 45.9401 41.97C43.2625 43.1227 40.3752 43.7084 37.4601 43.69H26.5301V54.62ZM26.5301 10.94V32.76H37.4601C38.9148 32.7817 40.3583 32.5025 41.7001 31.94C42.9951 31.388 44.1729 30.5938 45.1701 29.6C46.1687 28.5992 46.9634 27.4139 47.5101 26.11C48.0775 24.7667 48.3698 23.3233 48.3698 21.865C48.3698 20.4068 48.0775 18.9634 47.5101 17.62C46.4153 14.9814 44.3293 12.8774 41.7001 11.76C40.3637 11.1883 38.9236 10.899 37.4701 10.91L26.5301 10.94Z" fill="#9D3461"/>
</svg>
